<svg width="543" height="98" viewBox="0 0 543 98" fill="none" xmlns="http://www.w3.org/2000/svg">
    <path
            d="M73.9895 67.3999C70.3495 70.7733 66.6829 73.4399 62.9895 75.3999C59.3095 77.3599 54.7895 78.3333 49.4562 78.3333C45.4562 78.3333 41.7895 77.5599 38.4562 75.9999C35.1229 74.4399 32.2829 72.3333 29.9229 69.6666C27.5762 66.9999 25.7229 63.8933 24.3895 60.3333C23.0562 56.7733 22.3895 52.9999 22.3895 48.9999V48.7333C22.3895 44.7333 23.0562 40.9733 24.3895 37.4666C25.7229 33.9599 27.5895 30.8666 29.9895 28.1999C32.3895 25.5333 35.2562 23.4399 38.5895 21.9333C41.9229 20.4266 45.5495 19.6666 49.4562 19.6666C54.1762 19.6666 58.4162 20.5999 62.1895 22.4666C65.9762 24.3333 69.6829 26.9066 73.3229 30.1999L86.3895 15.1333C84.2562 12.9999 81.9495 11.0399 79.4562 9.26661C76.9762 7.49327 74.2562 5.97327 71.3229 4.73327C68.3895 3.49327 65.1228 2.50661 61.5228 1.79994C57.9228 1.09328 53.9495 0.733272 49.5895 0.733272C42.3895 0.733272 35.8162 1.99994 29.8562 4.53327C23.9095 7.0666 18.7895 10.5333 14.5229 14.9333C10.2562 19.3333 6.92285 24.4399 4.52285 30.2666C2.12285 36.0933 0.922852 42.3333 0.922852 48.9999V49.2666C0.922852 55.9333 2.12285 62.2013 4.52285 68.0666C6.92285 73.9333 10.2562 79.0266 14.5229 83.3333C18.7895 87.6413 23.8562 91.0399 29.7229 93.5346C35.5895 96.0266 41.9495 97.2666 48.7895 97.2666C53.3229 97.2666 57.4162 96.8933 61.0562 96.1333C64.7095 95.3733 68.0562 94.2666 71.1229 92.7999C74.1895 91.3333 77.0162 89.5733 79.5895 87.5346C82.1762 85.4933 84.6562 83.1733 87.0562 80.5999L73.9895 67.3999Z"
            fill="black"/>
    <path
            d="M177.057 49.2671C177.057 53.2671 176.377 57.0258 174.99 60.5338C173.617 64.0404 171.71 67.1324 169.257 69.7991C166.817 72.4658 163.857 74.5604 160.39 76.0671C156.923 77.5724 153.15 78.3338 149.057 78.3338C144.883 78.3338 141.083 77.5604 137.657 76.0004C134.243 74.4404 131.257 72.3338 128.723 69.6671C126.19 67.0004 124.243 63.8938 122.857 60.3338C121.483 56.7738 120.79 53.0004 120.79 49.0004V48.7338C120.79 44.7338 121.483 40.9738 122.857 37.4671C124.243 33.9604 126.15 30.8671 128.59 28.2004C131.043 25.5338 133.977 23.4404 137.39 21.9338C140.817 20.4271 144.617 19.6671 148.79 19.6671C152.883 19.6671 156.657 20.4404 160.123 22.0004C163.59 23.5604 166.59 25.6671 169.123 28.3338C171.657 31.0004 173.617 34.1071 174.99 37.6671C176.377 41.2271 177.057 45.0004 177.057 49.0004V49.2671ZM194.857 30.0004C192.417 24.1738 188.99 19.1071 184.59 14.8004C180.19 10.4938 174.977 7.06709 168.923 4.53376C162.883 2.00042 156.257 0.73376 149.057 0.73376C141.857 0.73376 135.217 2.00042 129.123 4.53376C123.043 7.06709 117.79 10.5338 113.39 14.9338C108.99 19.3338 105.55 24.4404 103.057 30.2671C100.577 36.0938 99.3232 42.3338 99.3232 49.0004V49.2671C99.3232 55.9338 100.55 62.1738 102.99 68.0004C105.443 73.8271 108.857 78.8938 113.257 83.2004C117.657 87.5071 122.883 90.9338 128.923 93.4658C134.977 96.0004 141.59 97.2671 148.79 97.2671C155.99 97.2671 162.643 96.0004 168.723 93.4658C174.817 90.9338 180.057 87.4658 184.457 83.0671C188.857 78.6671 192.31 73.5604 194.79 67.7338C197.283 61.9058 198.523 55.6671 198.523 49.0004V48.7338C198.523 42.0671 197.31 35.8271 194.857 30.0004Z"
            fill="black"/>
    <path d="M216.789 97.2666H237.322V0.733241H216.789V97.2666Z" fill="black"/>
    <path d="M255.589 97.2666H276.123V0.733241H255.589V97.2666Z" fill="#DEE510"/>
    <path d="M294.389 97.2666H314.923V0.733241H294.389V97.2666Z" fill="#00F8F1"/>
    <path d="M333.19 97.2666H353.722V0.733241H333.19V97.2666Z" fill="#E511B5"/>
    <path
            d="M449.723 49.2671C449.723 53.2671 449.029 57.0258 447.656 60.5338C446.283 64.0404 444.363 67.1324 441.923 69.7991C439.483 72.4658 436.524 74.5604 433.056 76.0671C429.589 77.5724 425.816 78.3338 421.723 78.3338C417.549 78.3338 413.751 77.5604 410.323 76.0004C406.896 74.4404 403.923 72.3338 401.389 69.6671C398.857 67.0004 396.896 63.8938 395.524 60.3338C394.149 56.7738 393.456 53.0004 393.456 49.0004V48.7338C393.456 44.7338 394.149 40.9738 395.524 37.4671C396.896 33.9604 398.816 30.8671 401.256 28.2004C403.696 25.5338 406.631 23.4404 410.056 21.9338C413.483 20.4271 417.283 19.6671 421.456 19.6671C425.549 19.6671 429.323 20.4404 432.789 22.0004C436.256 23.5604 439.256 25.6671 441.789 28.3338C444.323 31.0004 446.283 34.1071 447.656 37.6671C449.029 41.2271 449.723 45.0004 449.723 49.0004V49.2671ZM467.524 30.0004C465.084 24.1738 461.656 19.1071 457.256 14.8004C452.857 10.4938 447.631 7.06709 441.589 4.53376C435.549 2.00042 428.923 0.73376 421.723 0.73376C414.524 0.73376 407.883 2.00042 401.789 4.53376C395.696 7.06709 390.456 10.5338 386.056 14.9338C381.656 19.3338 378.216 24.4404 375.723 30.2671C373.229 36.0938 371.989 42.3338 371.989 49.0004V49.2671C371.989 55.9338 373.216 62.1738 375.656 68.0004C378.096 73.8271 381.524 78.8938 385.923 83.2004C390.323 87.5071 395.549 90.9338 401.589 93.4658C407.631 96.0004 414.256 97.2671 421.456 97.2671C428.656 97.2671 435.297 96.0004 441.389 93.4658C447.483 90.9338 452.723 87.4658 457.123 83.0671C461.524 78.6671 464.964 73.5604 467.456 67.7338C469.949 61.9058 471.191 55.6671 471.191 49.0004V48.7338C471.191 42.0671 469.964 35.8271 467.524 30.0004Z"
            fill="black"/>
    <path d="M542.41 0.733272V19.2666H509.99V97.2666H489.456V0.733272H542.41Z" fill="black"/>
</svg>
